<?xml version="1.0" encoding="utf-8"?>
<!-- Generator: Adobe Illustrator 27.0.0, SVG Export Plug-In . SVG Version: 6.00 Build 0)  -->
<svg version="1.1" id="none" xmlns:svgjs="http://svgjs.dev/svgjs"
	 xmlns="http://www.w3.org/2000/svg" xmlns:xlink="http://www.w3.org/1999/xlink" x="0px" y="0px" viewBox="0 0 789.1 755.5"
	 style="enable-background:new 0 0 789.1 755.5;" xml:space="preserve">
<style type="text/css">
	.st0{fill:#ED2647;}
	.st1{fill:#8D021F;}
	.st2{fill:#FFFFFF;filter:url(#Adobe_OpacityMaskFilter);}
	.st3{stroke:#000000;stroke-width:25.496;stroke-linejoin:round;stroke-miterlimit:14.5691;}
	.st4{mask:url(#_x39_4fac2dd-c6f0-4291-81c2-506f2b704fd0_00000072961596271104388760000001731857146352579206_);}
	.st5{fill:#5E1914;}
	.st6{display:none;fill:none;}
</style>
<g id="SvgjsG2685" transform="matrix(0.9820592540669653,0,0,0.9820592540669653,-0.054560523427421584,0)">
	<g id="g17">
		<path id="path3" class="st0" d="M169.2,107.8h3.4l-2.6-1.4L169.2,107.8z M178.3,103.5c0,0.7,0,0.7,0.7,0.7l2.9-2.2
			C180.2,101.4,179.5,101.4,178.3,103.5z M150.9,122.5l2.2-1.4c0.7-0.7,0.7-1.4,0.7-1.4h-1.4L150.9,122.5
			C150.2,121.8,150.2,122.5,150.9,122.5z M166.3,102.1h-0.7l-1.4,1.4h2.2v-1.4H166.3z M151.7,118.9l4.1-3.6c0.7-0.7,0.7-1.4,0.7-2.2
			h-2.2l-8.2,7.9l-1.4,2.9l4.8-4.1L151.7,118.9z"/>
		<path id="path5" class="st0" d="M98.3,175.6v-1.4c0.5-3.1,2.4-5.8,4.8-7.7l6.2-4.1l3.6-4.1l4.8-4.8l2.9-2.9l2.9-2.2
			c2.4-1.4,4.6-3.6,5.5-6.2l2.9-3.6c2.6-2.6,5-5.8,7-9.1l1.4-2.2l2.2-1.4l-1.4-2.2l2.9-3.6c5.5-4.1,9.8-9.8,15.4-13.9l2.2-2.2
			c0.7-1.7,1.9-3.1,3.6-4.1l5.5-2.9h2.9c2.2-0.7,3.8-2.4,4.8-4.1v-1.4c2.2-4.1,5.3-7.4,9.1-9.8l5.5-3.6l1.4-1.4l2.9-2.9l7-3.6h1.4
			l-7.7,2.9l-9.8,7c-4.1,3.6-9.8,4.1-12.5,9.8h2.2c-4.8,1.4-9.8,3.6-12,8.4s-5.5,4.1-8.4,6.2c-1.2,0.2-2.2,1.4-2.2,2.9
			c-5.5-0.7-7.7,3.6-10.6,6.2v5.5c-4.6,2.2-8.4,5.5-11.3,9.8c-11.3,1.2-11.3,15.1-20.9,18h-0.7c-0.2,0.5-0.2,1,0,1.4
			c-2.2,0-3.6,1.4-2.9,3.6l-1.4,3.6c-4.8,2.9-4.1,7.7-7,12c-5.5,3.6-7.7,10.6-12,15.4l2.2,3.6l1.4-1.4
			C94,181.6,96.2,178.5,98.3,175.6z M407.7,23.8l4.1,1.4h1.4c3.1,1.4,6.5,1.9,9.8,1.4c4.3-0.7,8.9-0.5,13.2,0.7h8.4
			c2.9-0.7,6,0.2,8.4,2.2c0.2,0.2,0.2,0.5,0,0.7h-2.9c-0.2,0.2-0.2,0.5,0,0.7h4.8c2.9-1.2,6.2-1.2,9.1,0c1.4,0,0.7,0.7,1.4,1.4
			l3.6,1.4h-1.4c-1.4-2.9-3.6-2.9-5.5-2.9c-9.4-4.3-19.7-6.5-30-6.2h-5.5c-8.2-2.4-16.6-3.4-25.2-2.9h1.4L407.7,23.8z M458.6,45.4
			h1.4H458.6z M511.2,49c1.9,1.9,4.6,2.4,7,1.4h4.1c-3.6-2.9-7.9-4.6-12.5-4.8l-4.8-1.4l3.6,2.2L511.2,49z M487.5,39.9
			c0,0.7,0.7,1.4,1.4,2.2h1.4l3.6-2.2c-3.6-2.2-7.7-3.6-12-4.1l4.8,2.9L487.5,39.9z M539.1,58.8l5.5,3.6
			C543.4,60.3,542,58.8,539.1,58.8z"/>
		<path id="path7" class="st0" d="M723.1,533.2l4.1-11.3l4.1-10.6c1.4-3.6,4.1-12.5,5.5-18.3c0.2-1.7,1-3.4,2.2-4.8h0.7v-7.6
			c3.6-0.7,2.9-4.1,3.6-6.2l5.5-32.9c3.6-14.2,3.6-29.1,0-43.5c0.7-4.1-0.7-8.2-3.6-11.3v-30c-2.2-6.2,2.2-13.2-2.9-19l-5.5-22.3
			c0-0.5,0-1,0-1.4l-1.4-4.1c-0.5-1-0.5-1.9,0-2.9h0.7c2.2,0,2.2-3.6,2.2-6.2c-0.5-2.6-1.4-5.3-2.9-7.7l-2.2-2.9
			c-1-1.4-1.4-3.1-1.4-4.8c0.2-4.8-0.2-9.4-1.4-13.9v-4.1c-1.4-4.8-2.9-10.6-4.1-15.4l-1.4-3.6c-1.4-2.4-2.4-5-2.9-7.7
			c-0.5-1.9-1.2-3.8-2.2-5.5l-4.1-7c-1.2-1-2.6-1.4-4.1-1.4h-0.7v-2.2h-1.4v-5.5h-0.7v-1.5c0-0.2,0-0.5,0-0.7v-1.4
			c0.7-1.4,0.7-2.2-0.7-3.6c-1.2-1.2-2.2-2.6-2.9-4.1l-1.4-4.1c-1-3.1-2.6-6-4.8-8.4c-1.4-1.4-2.6-3.1-3.6-4.8l-4.8-11.3
			c-1-2.4-2.4-4.8-4.1-7l-4.1-5.5c-1.2-1.7-2.2-3.6-2.9-5.5l-1.4-2.2c-0.7-1-1-2.4-0.7-3.6c0-1.2-0.5-2.2-1.4-2.9l-2.9-2.2v1.4
			c0.7,1.4,0,2.2-0.7,2.2H671l2.2,7l2.2,3.6l4.8,6.2h-0.7l-1.4-1.4l-1.4-1.4c-0.7-4.3-4.1-7.4-8.4-7.7v-4.8
			c-2.2-8.4-11.3-9.1-15.4-14.7c-1.4-3.4-4.3-5.5-7.7-6.2l-5.5-6.2c-5.8-8.4-13.2-15.4-21.6-20.9l-5.5-4.1l-2.9-2.2
			c-4.8-4.8-7-12.5-15.4-12.5l-5.5-3.6l-6.2-4.8c-2.2-5-7-8.6-12.5-9.1c-4.6-4.1-10.1-7-16.1-8.4l1.4,1.4L559,67l9.1,4.8
			c5.5,2.9,10.3,6.7,14.7,11.3c3.1,3.1,6.7,5.5,10.6,7.7l4.1,3.6c0.7,0.7,1.4,1.4,0.7,2.2h-0.7l-6.2-2.2c-5-1-9.8-2.9-13.9-5.5
			l-8.4-4.1l-9.1-4.8h-1.4c-2.2-0.7-2.9-2.9-5.5-3.6l-5.5-1.4L530,71.4c-2.4-1.2-4.6-2.9-6.2-4.8c-2.2,0-4.3-0.7-6.2-2.2l-7-2.9
			c-6.7-1.4-13.2-3.1-19.7-5.5l-4.1-1.4l-7-2.2h-3.6l-1.4-2.2v-0.7h-11.3l-4.1-3.6l-2.9,1.4l-2.9,1.4h-1.4l-6.2-3.6
			c-4.1,4.1-7.7-1.4-11.3-0.7l-7-2.2c-2.6,1.4-5.8,1.4-8.4,0h-8.2c-2.2-0.2-3.6-2.2-3.6-4.1l2.2-1.4h4.1c0.5,0.7,0.7,1.4,0.7,2.2
			c0,1.4,1.4,1.4,3.6,1.4h1.4l-2.9-4.1c-1.9-1.7-4.6-2.2-7-1.4l-7,2.2h-0.7c2.2,1.4,1.4,2.2,1.4,3.6H392l-2.9-1.4l-5.5-2.9h-0.7
			l-4.8-1.4H362l2.9-1.4l5.5-1.4h2.2l12-2.2l7.7-1.4l4.1-1.4h-7.7c-7.9-1.7-15.9-1.7-23.8,0h-9.1L332,26.4c-9.8,0.7-19.7,0-27.4,8.4
			c-17.5-2.9-32.9,4.8-48.3,12.5l-15.4,6.2c-9.8,1.4-18.7,5.8-25.9,12.5h2.2l3.6-2.2l5.5-3.6l9.1-4.1l7-1.4c4.3-2.9,8.9-5,13.9-6.2
			l6.2-2.2h1.4c0.7,1.4,3.6,0,4.8,0h1.4c0.7,0,0.7,0.7,0,0.7l-4.1,2.9l7-2.2l5.5-1.4l-9.1,4.8l-9.1,2.9c-1.9,0.5-3.4,1.9-4.1,3.6
			l-1.9,3.4h2.2l2.9-1.4c1.4-2.2,3.6-3.6,6.2-4.1l10.6-3.6h3.6c0.5-0.2,1,0,1,0.2c0.2,0.5,0,1-0.2,1l0,0c-1.4,1.4-4.1,2.2-5.5,3.6
			h1.4l-22.3,6.2l-26.7,11.3c-4.6,4.1-10.1,7-16.1,8.4c-3.6,3.1-7.4,5.8-12,7.7l-5.5,1.4c-1.7,3.6-5,6-9.1,6.2l-2.2,3.6
			c-2.2,3.1-5,5.8-8.4,7.7h-1v-0.7l-1.4,1.4l-1.2,1.4l-7,1.4H160l-2.9,3.6c-0.7,0.7-0.7,1.4,0,1.4h0.7c-4.1,4.1-7,9.8-12.5,12
			l-9.1,10.3c-4.1,8.4-12.5,11.3-18.3,18.3c-5.5,7-9.8,27.4-27.4,30l-1.4-2.2l-1.4,3.6c-0.7,1.9-1.4,3.8-2.9,5.5
			c-3.1,4.8-6,9.6-8.4,14.7c-0.7,1-1,2.4-0.7,3.6c0,1.9-0.5,3.8-1.4,5.5l-3.6,7.7h1.4c2.2,0,2.2,2.2,2.9,4.1l5.5-7.7
			c1-1.9,2.4-3.6,4.1-4.8c2.6-1.4,5-3.6,6.2-6.2l2.2-2.2l2.9-2.9l4.1-7.7h1.4c0.7,0.7,0.7,0.7,1.4,0l1.4-2.9h3.6v5.5l3.6-3.6
			c0.7-1.2,0.7-2.4,0-3.6c0-0.7,0.2-1.4,0.7-2.2c1-1,1.7-2.2,2.2-3.6c0.7-2.9,2.9-5.3,5.5-6.2l2.2-1.4l2.2-2.2
			c2.4-1.7,4.3-4.1,5.5-7l-1.4-2.2c0-0.7,0.7-2.2,1.4-2.9h3.6l4.1-5.5l4.1-2.2h1.4c-14.4,15.6-27.1,32.4-38.4,50.4h-0.7h0.7
			c-15.4,25-27.9,51.4-37,79h-3.6l-3.6-2.9c-1.4-1.4-0.7-4.8-2.9-6.2h0.7c2.2-3.6-0.7-8.4,2.2-12s0.7-9.8-6.2-8.4
			c-6.9,1.4-10.6,3.6-9.1,10.6c1.5,7-7,12.5-7.7,20.2s-3.6,3.6-2.2,6.2v27.4c0.7,5.5-3.6,12.5,5.5,14.7l9.1,6.2
			c0.7,3.6-3.6,11.3,6.2,9.1c-1.2,11.5-1.9,23.3-2.2,35.1c0,7.7,0.7,15.4,0.7,23.1v-2.9c-0.7-2.9-0.7-5.5-1.4-9.1l-2.2,2.2v-1.4
			h-2.9c0,3.6-0.7,5.5-2.9,6.2c-0.5,1-0.7,2.4-0.7,3.6c0,0.7,0.7,2.2,1.4,1.4c0.7-0.7,2.9,1.4,4.8,2.9c2.2,1.4-1.4,2.2-2.9,1.4
			s-1.4,0.7-1.4,2.2v2.2l3.6,10.6c0,2.2-0.7,4.1-0.7,6.2c0,1.9,0.5,3.8,1.4,5.5h-1.9v-2.2l-4.8-1.4v-4.1c0.2-1.2,0.2-2.4,0-3.6
			c-1-4.1-1.7-8.4-2.2-12.5c-1.4-8.2-1.7-16.3-1.4-24.5c0-1.2,0.2-2.4,0.7-3.6v1.4c0.2,1.2,0.5,2.4,0.7,3.6c0,1,0.2,1.9,0.7,2.9
			c0.7,1.4,1.4,2.9,2.9,2.9c1.4,0,0.7-0.7,0.7-1.4c0-1.2-0.2-2.4-0.7-3.6c-1.2-2.9-1.9-6-2.2-9.1c-0.2-1.7-1-3.4-2.2-4.8
			c-1-1.9-1.4-4.1-1.4-6.2v-5.5c0-2.2,0.7-4.1,0.7-6.2c0.2-1,0-1.9-0.7-2.9h-0.7c-5.5,2.9-4.8,1.4-7,11.3v12.5c0,4.8-0.7,9.8,0,14.7
			c0,5.3,0.2,10.8,1.4,16.1c0.2,1.2,0.2,2.4,0,3.6c0,2.2,0.2,4.3,0.7,6.2c0.5,2.9,0.7,6,0.7,9.1c-0.5,4.1,0,8.2,1.4,12
			c0.2,1,0.2,1.9,0,2.9c-0.2,1.9,0,3.8,0.7,5.5c0.7,2.2,1.2,4.1,1.4,6.2c0.7,5.3,1.9,10.3,3.6,15.4c0.7,2.2,1.2,4.6,1.4,7
			c0.2,1.7,1,3.4,2.2,4.8c1.7,2.4,2.9,5.3,3.6,8.4c0.5,2.4,1.2,4.8,2.2,7l2.9,9.8c1,3.6,2.2,7.2,4.1,10.6c2.4,4.6,4.3,9.6,5.5,14.7
			l1.4,3.6c1.7,1.9,2.9,4.3,3.6,7c0.5,2.2,1.4,3.8,2.9,5.5c0.7,1,1.2,2.2,1.4,3.6c0.7,2.2,1.4,2.9,2.9,2.2h0.7v6.2l3.6,7l3.6,7
			l7.7,8.4l2.9,2.9c2.2,2.2,4.8,3.6,6.2,7l2.9,2.2c1.2,0.7,1.9,2.2,2.2,3.6l1.4,4.8c1,2.4,2.4,4.3,4.1,6.2l2.9,1.4h2.2
			c0.7,0.2,1.2,1,1,1.7c0,0,0,0.2-0.2,0.2c0,1.2,0,2.4,0,3.6c0.5,1.4,1.4,2.6,2.9,3.6h1.4c2.9-0.7,5.5,1.4,8.4,4.8h0.7
			c0-0.7,0.7-0.7,0-1.4v-1.4c0-0.7,0.7-1.4,1.4-0.7c1.4,1,2.2,2.6,2.2,4.1v1.4c0.5,2.9,1.4,5.8,2.9,8.4c3.6,2.2,3.6,2.2,3.6,0.7
			c0-1.4,0-1.4,1.4-1.4h2.9l1.4,2.2l5.5,3.6c4.8,5.5,12.5,4.8,18.3,8.4l12,12h1.4c2.2,5,6,9.1,11.3,11.3c1.4,2.4,4.1,4.1,7,4.1
			c0,3.6,4.1,4.1,7.7,4.8c1.4,1.7,3.4,2.6,5.5,2.9h1.4c2.6,2.9,6.7,4.1,10.6,3.6l6.2,5.5l16.8,6.2v1.4c3.6,7.7,12,4.8,17.5,7
			l7.7,2.9h2.9c8.4,2.2,16.8,6.2,25.9,3.6c-0.2,1-0.2,1.9,0,2.9c7.7,4.8,16.8,0,25.2,2.9c3.8,1.4,7.9,1.7,12,0.7h0.7l5.5,1.4h2.2
			l6.2,1.4h2.2c1.2-0.7,2.4-0.7,3.6,0c3.4,1.2,7,2.2,10.6,2.9h4.1c1.4-1,3.4-1,4.8,0h24.7c3.8,0.5,7.4,0.2,11.3-0.7h7l3.6-1.4h23.1
			l4.1-1.4l3.6-2.2h15.4v4.1h-9.1l-8.4,1.4c-2.9,0.7-4.8,0-7,0.7c-2.2,1-4.6,1.4-7,1.4l-9.1,2.2h-2.9c-3.6-0.7-7.2-0.5-10.6,0.7
			h-12.5c-1.9,1-4.3,1-6.2,0h-31.5c-2.6-0.5-5.5,0.2-7.7,2.2h-2.2l-2.2-1.4v-2.2h-8.4c-2.9-1.2-6-1.9-9.1-2.2h-17.5l-4.8-1.4
			l-3.6-1.4l-14.7-2.9h-3.6l-3.7-1.6l-14.7-4.8l-9.8-2.9H252c-0.7,0-0.7,0.7-0.7,1.4h1.4c9.1,3.6,18.3,6.2,27.4,10.6h2.2l6.2,1.4
			l9.8,2.9h9.1l4.1,1.4l4.8,2.2l12,2.2l7.7,1.4l7.7,1.4h5.5l5.5,1.4h21.6l7,1.4h16.1l7-1.4h15.5c2.9,0,4.1-0.7,4.8-2.2h7
			c2.2,0.2,4.1-0.5,5.5-2.2c-0.7,0.7,0,0.7,0.7,1.4h2.9v-1.4c0-0.7,0-0.7,1.4-1.4s4.1-0.7,4.8,0.7h2.9l2.2-1.4c1.4,0,1.4,0,1.4,0.7
			h4.8l3.6-1.4l5.5-2.9c0.7,2.2,2.9,2.9,9.1,1.4l9.1-2.9h8.4c6.2-0.7,13.9,0,19-4.8h1.4l2.9-2.2l7.7-2.2c5-1,9.6-2.9,13.9-5.5
			l2.9-1.4h0.7l6.2-4.1l2.9-1.4l3.6-1.4h2.9c2.9-0.7,2.9-0.7,3.6-2.9c0.7-2.2,0-0.7-1.4-0.7h-0.7l2.9-3.6h1.4
			c2.2-0.7,3.6-1.4,4.8-0.7h1.4c3.1-1,5.5-3.4,6.2-6.2c2.2-2.9,7.7-1.4,9.1-5.5l30-21.6c7.7-0.7,9.8-7.7,15.4-12
			c5.5-4.1,16.1-7.7,20.9-15.4l6.2-2.9h0.7c3.6,1,7.4-1.2,8.4-4.8v2.9c5.5-2.9,12.5,2.2,18.3-3.6c5.5-5.5,0-19,7-26.7l4.8-3.6
			c5.3-9.1,8.9-19,10.6-29.3l1.4-1.4c0-2.2,0-4.8,2.9-6.2c2.6-1.9,3.1-5.8,1.4-8.4H714c0.5-0.7,0.5-1.4,0-2.2c4.8,0,5.5-4.8,8.4-7
			V540c0-0.5,0-1,0-1.4C722.9,536.4,723.1,534.7,723.1,533.2L723.1,533.2z"/>
		<path id="path9" class="st0" d="M215.3,65.8l-2.2,1.4l-2.9,2.2l3.6-1.4L215.3,65.8z M258.1,51.9h0.7l2.2-1.4h-2.9V51.9z
			 M239.8,58.8l-0.7,0.7h0.7V58.8z M95,184l-2.9,2.9h1.4C94.5,186.1,95.2,185.2,95,184z M115.9,159.5c1-1.2,1.7-2.6,2.2-4.1
			c-1.4,1-2.6,2.2-3.6,3.6c-0.7,0.7-0.7,1.4,0,1.4L115.9,159.5z M107.5,170.1v-1.5c-1.4,0-3.6,2.2-5.5,2.2v1.4
			C104.1,174.1,104.8,173.4,107.5,170.1z M547.5,65.1h0.7l-3.6-2.2L547.5,65.1z M530.2,55.2c3.6-0.7,5.5,2.9,8.4,3.6h0.7l-2.2-1.4
			l-7-3.6l-7.7-3.6l2.2,1.4L530.2,55.2z M481.9,36.5h-0.7l-8.4-1.4h3.6L481.9,36.5z M495.9,41.3l9.1,2.9
			C502.1,42.5,499,41.5,495.9,41.3z M432.9,41.3c0.7-1,1.2-2.2,1.4-3.6h-3.6l-2.2,2.2l2.9,2.2L432.9,41.3z M466.6,43.5
			c0,0.2,0,0.5,0,0.7V43.5z M779.8,409.3h-1.9v-2.9h2.2c0.7,0,1.4-2.2,0.7-2.9s-0.7-4.8-2.2-5.5c-1-0.2-1.4-1.2-1.4-2.2l1.4-2.9
			c0-0.5,0-1,0-1.4h-1.4l-1.4-2.2c-0.7,2.2-1.4,4.1-2.9,4.8c0,0.5,0,1,0,1.4c0,0.7,0,1.4-0.7,1.4h-0.7c-0.2,0.7-0.5,1.4-0.7,2.2
			c-1.4,1.9-2.4,4.1-2.9,6.2c-0.2,1,0,2.2,0.7,2.9h0.7c-0.7,1.7-1,3.6-0.7,5.5v2.9c0,1.2-0.2,2.4-0.7,3.6h-0.7l-2.9,4.8v4.1
			c0.2,2.6-0.5,5.5-2.2,7.7h-1l-1.4-1.4c-1.2-1.7-1.4-3.8-0.7-5.5c0.7-3.8,1-7.9,0.7-12c0-0.7-0.7-1.4-0.7-1.4
			c-0.5,0.7-0.7,1.4-0.7,2.2v4.1c0,1.4-0.7,4.1-2.2,4.8c-1.4,0.7-0.7,1.4-0.7,2.2l-1.4,4.1l2.2,3.6c-1.4,1.4-2.9,0.7-3.6-0.7v7h2.2
			v2.9c-1.2,3.1-1.9,6.5-2.2,9.8c0,1,0,1.9,0,2.9c0,3.1-0.5,6.2-1.4,9.1c-0.2,1.4-0.2,2.9,0,4.1l-2.2,4.8c-0.5,1.7-1.2,3.4-2.2,4.8
			l-2.2,4.1l-6.2,19c2.2,6.2-2.9,10.6-5.5,14.7c0.7,6-1.2,12-5.5,16.1v2.9c0,0.7,0.7,1.4,2.2,0.7l2.9-2.2l1.4-2.9h1.4
			c0.7,0.7,1.4,0.7,2.9-0.7h1.4c1.2,1,1.4,2.9,0.7,4.1c-0.5,1.9-0.7,3.6-0.7,5.5c0,0.7,0,1.4,0.7,1.4h1.4c0.7,0.7,1.4,0,2.2-2.2
			l1.4-3.6h2.2c2.9-0.7,2.9-0.7,4.1-4.1l3.6-6.2l2.2-4.1l2.9-7c0-2.4,0.7-5,2.2-7c1-1.2,1.2-2.9,0.7-4.1c0-1.4,0-2.2,1.4-4.1
			l2.2-2.9l3.6-7c0.2-2.2,0.7-4.3,1.4-6.2c1.4-2.9,2.2-6,2.2-9.1c0.5-2.2,1.2-4.3,2.2-6.2v-3.6c-0.7-1.4-0.7-1.4,0-4.1
			c0.7-2.6,0.7-1.4,1.4-1.4c0.5,0.5,0.7,1.4,0.7,2.2l1.4-3.6c1-1.9,1.4-4.1,1.4-6.2v-2.2c0-0.7,0-2.2-0.7-2.2v2.9
			c-1.4,0-2.2,1.4-3.6,2.2c0.2-1.9,0.5-3.6,0.7-5.5l2.9-1.4c1.2-1.2,1.7-2.6,1.4-4.1c0-0.7,0-1.4,0-2.2c1-3.1,1.4-6.5,1.4-9.8v-1.4
			l2.2-7h0.7c0.7-0.5,1-1.4,0.7-2.2h-0.7c-0.5-1.9,0-4.1,1.4-5.5C785.3,413.1,782.9,410.5,779.8,409.3L779.8,409.3z M94.2,216.2
			c0.2-0.5,0.2-1,0-1.4l-1.4-1.4l-1.4,1.4l-2.2,4.1c0,2.2-2.2,4.1-2.2,6.2v1.4h0.7L94.2,216.2z M768,389.6h0.7
			c1.4-2.6,1.9-5.5,1.4-8.4c-0.2-1.4,0.2-2.6,1.4-3.6h0.7v-1.4l-1.4-1.4h-0.7c-0.7,0.7-1.4,2.2-2.2,2.2s-0.7,0.7-0.7,2.2v2.2
			C766.8,384.1,767.1,387,768,389.6L768,389.6z M122.8,631c-0.7,0,0,1.4,0,2.2l5.5,5.5h1c-1.4-2.2-2.2-4.1-1.4-4.8
			c-1.2,0-2.4-0.5-3.6-1.4L122.8,631z M774.3,383.4h0.7c0.2-1.4,0.2-2.9,0-4.1c-2.2,0.7-2.2,0.7-2.2,4.1
			C772.8,386.7,773.5,384.1,774.3,383.4L774.3,383.4z"/>
		<path id="path11" class="st0" d="M777.2,434.5c0.7-1,1-2.4,0.7-3.6c0-0.7-0.7-1.4-0.7-0.7h-1.4v1.4
			C775.7,434.5,776.4,435.2,777.2,434.5L777.2,434.5z M777.9,377.1h-0.7v4.1C777.6,380,777.9,378.5,777.9,377.1z M150.2,648.5h-1.4
			v1.4l1.4,1.4h1.4v-1.4L150.2,648.5z M756,415.5c0-0.7,0-0.7-0.7-0.7L756,415.5z M99.8,605.8l3.6,3.6l-2.9-4.1L99.8,605.8z"/>
		<path id="circle13" class="st0" d="M103.9,609.9L103.9,609.9L103.9,609.9z"/>
		<path id="path15" class="st0" d="M98.3,211.4h-0.7v1.4v-1.4H98.3z M680.6,165l-1.4-2.2h-0.7L680.6,165z M71.2,227.5
			c0.5-0.2,0.7-1,0.7-1.4v1.4H71.2z M760.3,424.7v0.7V424.7z M145.4,647.8h-0.7c0.7,0.7,1.4,0,0.7-0.7V647.8z M146.6,652.9h0.7
			l-0.7-0.7V652.9z"/>
	</g>
</g>
<g transform="matrix(0.7,0,0,0.7,149.57575757575756,282.1265587044535)">
	<g id="tight-bounds" transform="matrix(1,0,0,1,0.2400000000000091,-0.09999999999999432)">
		<g>
			<g transform="matrix(1,0,0,1,39.55199999999999,81.2068105579686)">
				<g>
					<g>
						<g>
							<g id="textblocktransform">
								<g>
									<g transform="matrix(1,0,0,1,0,0)">
										<path id="text-0" class="st1" d="M-6.2,141.8h-66.1v-2.6l4.7-1.8c3.5-1.4,5.9-3.1,7.2-5.2c1.3-2.1,1.9-4.9,1.9-8.3l0,0
											V-12c0-3.6-0.6-6.5-1.9-8.6c-1.3-2.1-3.7-3.7-7.2-4.9l0,0l-4.7-1.8v-2.6H2.4c21.2,0,36.4,3.9,45.8,11.6
											c9.4,7.7,14,17.5,14,29.3l0,0c0,8.8-3.4,16.9-10.3,24c-6.9,7.2-18.6,12.3-35.3,15.2l0,0c19.1,2.1,33,7.1,41.9,14.9
											c8.8,7.9,13.3,17.5,13.3,28.8l0,0c0,5.6-1.2,11.1-3.6,16.8c-2.4,5.7-6.5,10.8-12.3,15.5c-5.8,4.7-13.8,8.4-23.8,11.3
											C22,140.4,9.3,141.8-6.2,141.8L-6.2,141.8z M-19.9-24.7V50h11.2c11.6,0,20-2.7,25.1-8.1c5.1-5.4,7.6-14.7,7.6-28.1l0,0
											c0-13.9-2.3-23.8-7-29.7c-4.7-5.9-12.3-8.8-22.9-8.8l0,0H-19.9z M-19.9,55.2v81.4h13c13,0,22.7-3.5,29-10.4
											c6.3-6.9,9.5-17.8,9.5-32.5l0,0c0-13.9-3-23.8-9.1-29.7c-6.1-5.9-16-8.8-29.9-8.8l0,0H-19.9z M209.8,141.8H83.3v-2.6
											l5.5-2.1c3.6-1.4,5.9-3.1,6.9-5.1c1-2,1.5-4.7,1.5-8.2l0,0V-12c0-3.5-0.5-6.2-1.6-8.3c-1-2.1-3.3-3.7-6.8-4.9l0,0
											l-5.5-2.1v-2.6h66.3v2.6l-4.7,2.1c-3.3,1.2-5.6,2.9-6.8,5c-1.2,2.2-1.8,5-1.8,8.5l0,0v148.3h40.1c6.4,0,11.1-1.6,14.2-4.7
											c3.1-3.1,6-7.6,8.7-13.5l0,0l10.1-21.9h2.6L209.8,141.8z M256.1,141.8h-35.9v-2.6l6.5-2.3c3.5-1.4,6.2-3.1,8.1-5.1
											c1.9-2,3.5-4.8,4.7-8.4l0,0L293-30.4h22.1L368,124.4c1.4,3.8,2.9,6.7,4.6,8.7c1.7,2,4.4,3.7,8.1,5.1l0,0l3.1,1v2.6h-66.1
											v-2.6l3.9-1.3c3.6-1.4,5.8-3.3,6.6-5.9c0.8-2.5,0.7-5.5-0.4-8.9l0,0l-12.2-37.5h-57.8l-12.5,36.7
											c-1.2,3.8-1.6,6.9-1.2,9.1c0.5,2.3,2.5,4.1,6.1,5.5l0,0l5.7,2.3V141.8z M287.8-0.5l-28.1,80.9H314L287.8-0.5z
											 M525.6,141.8H392.4v-3.1l90.3-163.4h-49.4c-5.7,0-10.4,1.3-13.9,3.9c-3.6,2.6-6.7,6.4-9.5,11.4l0,0l-12,21.1h-2.6
											l1.8-41.6h127.2v3.1L434,136.6h56.7c5.7,0,10.3-1.4,13.7-4.1c3.4-2.7,6.4-6.5,9.2-11.6l0,0l11.2-20.8h2.6L525.6,141.8z
											 M668.4,141.8H538.6v-2.6l6-2.3c2.9-1.2,5-2.8,6.1-4.8c1.1-2,1.7-4.7,1.7-8.2l0,0V-12c0-3.5-0.5-6.2-1.4-8.2
											c-1-2-3.1-3.6-6.4-4.8l0,0l-6-2.3v-2.6h124.6l1.6,40.1h-2.6L651-14.3c-1.6-3.1-3.2-5.6-4.9-7.5c-1.7-1.9-4.3-2.9-7.8-2.9
											l0,0h-46.8v75.2h27.8c3.5,0,6.1-0.9,8-2.7c1.8-1.8,3.4-4.3,4.8-7.4l0,0l5.2-10.4h2.6v46.8h-2.6L632,65.8
											c-1.6-3.1-3.2-5.6-4.9-7.4c-1.7-1.8-4.3-2.7-7.8-2.7l0,0h-27.8v80.9h52.6c3.5,0,6.2-0.9,8.1-2.8c1.9-1.8,3.5-4.4,4.7-7.6
											l0,0l10.7-24.5h2.6L668.4,141.8z"/>
									</g>
								</g>
							</g>
						</g>
					</g>
				</g>
			</g>
			<defs>
				<filter id="Adobe_OpacityMaskFilter" filterUnits="userSpaceOnUse" x="125.4" y="-172.3" width="426.1" height="618.5">
					<feColorMatrix  type="matrix" values="1 0 0 0 0  0 1 0 0 0  0 0 1 0 0  0 0 0 1 0"/>
				</filter>
			</defs>
			
				<mask maskUnits="userSpaceOnUse" x="125.4" y="-172.3" width="426.1" height="618.5" id="_x39_4fac2dd-c6f0-4291-81c2-506f2b704fd0_00000072961596271104388760000001731857146352579206_">
				<rect x="-160.4" y="-174.9" class="st2" width="1614.3" height="1008.9"/>
				<g transform="matrix(1,0,0,1,39.55199999999999,81.2068105579686)">
					<g>
						<g>
							<g>
								<g id="SvgjsG1655_00000021096044587328980620000012486762010906593713_">
									<g>
										<g transform="matrix(1,0,0,1,0,0)">
											<path id="SvgjsPath1653_00000059306691575568985340000012276296082602438591_" class="st3" d="M-6.2,141.8h-66.1v-2.6
												l4.7-1.8c3.5-1.4,5.9-3.1,7.2-5.2c1.3-2.1,1.9-4.9,1.9-8.3l0,0V-12c0-3.6-0.6-6.5-1.9-8.6c-1.3-2.1-3.7-3.7-7.2-4.9l0,0
												l-4.7-1.8v-2.6H2.4c21.2,0,36.4,3.9,45.8,11.6c9.4,7.7,14,17.5,14,29.3l0,0c0,8.8-3.4,16.9-10.3,24
												c-6.9,7.2-18.6,12.3-35.3,15.2l0,0c19.1,2.1,33,7.1,41.9,14.9c8.8,7.9,13.3,17.5,13.3,28.8l0,0c0,5.6-1.2,11.1-3.6,16.8
												c-2.4,5.7-6.5,10.8-12.3,15.5c-5.8,4.7-13.8,8.4-23.8,11.3C22,140.4,9.3,141.8-6.2,141.8L-6.2,141.8z M-19.9-24.7V50
												h11.2c11.6,0,20-2.7,25.1-8.1c5.1-5.4,7.6-14.7,7.6-28.1l0,0c0-13.9-2.3-23.8-7-29.7c-4.7-5.9-12.3-8.8-22.9-8.8l0,0
												H-19.9z M-19.9,55.2v81.4h13c13,0,22.7-3.5,29-10.4c6.3-6.9,9.5-17.8,9.5-32.5l0,0c0-13.9-3-23.8-9.1-29.7
												c-6.1-5.9-16-8.8-29.9-8.8l0,0H-19.9z M209.8,141.8H83.3v-2.6l5.5-2.1c3.6-1.4,5.9-3.1,6.9-5.1c1-2,1.5-4.7,1.5-8.2l0,0
												V-12c0-3.5-0.5-6.2-1.6-8.3c-1-2.1-3.3-3.7-6.8-4.9l0,0l-5.5-2.1v-2.6h66.3v2.6l-4.7,2.1c-3.3,1.2-5.6,2.9-6.8,5
												c-1.2,2.2-1.8,5-1.8,8.5l0,0v148.3h40.1c6.4,0,11.1-1.6,14.2-4.7c3.1-3.1,6-7.6,8.7-13.5l0,0l10.1-21.9h2.6L209.8,141.8z
												 M256.1,141.8h-35.9v-2.6l6.5-2.3c3.5-1.4,6.2-3.1,8.1-5.1c1.9-2,3.5-4.8,4.7-8.4l0,0L293-30.4h22.1L368,124.4
												c1.4,3.8,2.9,6.7,4.6,8.7c1.7,2,4.4,3.7,8.1,5.1l0,0l3.1,1v2.6h-66.1v-2.6l3.9-1.3c3.6-1.4,5.8-3.3,6.6-5.9
												c0.8-2.5,0.7-5.5-0.4-8.9l0,0l-12.2-37.5h-57.8l-12.5,36.7c-1.2,3.8-1.6,6.9-1.2,9.1c0.5,2.3,2.5,4.1,6.1,5.5l0,0
												l5.7,2.3V141.8z M287.8-0.5l-28.1,80.9H314L287.8-0.5z M525.6,141.8H392.4v-3.1l90.3-163.4h-49.4
												c-5.7,0-10.4,1.3-13.9,3.9c-3.6,2.6-6.7,6.4-9.5,11.4l0,0l-12,21.1h-2.6l1.8-41.6h127.2v3.1L434,136.6h56.7
												c5.7,0,10.3-1.4,13.7-4.1c3.4-2.7,6.4-6.5,9.2-11.6l0,0l11.2-20.8h2.6L525.6,141.8z M668.4,141.8H538.6v-2.6l6-2.3
												c2.9-1.2,5-2.8,6.1-4.8c1.1-2,1.7-4.7,1.7-8.2l0,0V-12c0-3.5-0.5-6.2-1.4-8.2c-1-2-3.1-3.6-6.4-4.8l0,0l-6-2.3v-2.6
												h124.6l1.6,40.1h-2.6L651-14.3c-1.6-3.1-3.2-5.6-4.9-7.5c-1.7-1.9-4.3-2.9-7.8-2.9l0,0h-46.8v75.2h27.8
												c3.5,0,6.1-0.9,8-2.7c1.8-1.8,3.4-4.3,4.8-7.4l0,0l5.2-10.4h2.6v46.8h-2.6L632,65.8c-1.6-3.1-3.2-5.6-4.9-7.4
												c-1.7-1.8-4.3-2.7-7.8-2.7l0,0h-27.8v80.9h52.6c3.5,0,6.2-0.9,8.1-2.8c1.9-1.8,3.5-4.4,4.7-7.6l0,0l10.7-24.5h2.6
												L668.4,141.8z"/>
										</g>
									</g>
								</g>
							</g>
						</g>
					</g>
				</g>
			</mask>
			<g class="st4">
				<g transform="matrix(2.4535596816457725, 0, 0, 2.4535596816457725, 113.29988814911334, 1)">
					<g>
						<path class="st5" d="M68.9-33.9c4.9-10.1,1.8-24.6-7.6-30.5c3-0.3,6.1,0.2,9,1.6c8.7,4,12.5,14.6,8.7,23.1
							c-2.3,5.2-8.6,9.8-13.4,10.9C66.9-30.3,68-32,68.9-33.9z"/>
						<path class="st5" d="M171.7,8.5c-8-16.4-24.9-24.4-24.9-24.4s-1.8-1.2-2.6-0.3c-0.7,0.9,0.3,2.8,0.3,2.8s15.9,22.7,12.4,41.9
							c-2.8,14.8-17.6,21.2-17.6,21.2s15.9-22.6,3.5-43c-3.1-5-7-14.8-6-25.6c1.3-14,17.6-20.6,17.6-20.6s1.3-0.6,1.3-1.6
							c-0.1-1.2-1.4-1.1-1.4-1.1s-19.6-0.9-32.4,19.1c-7,10.9-6,23.7-14.5,33c-9.4,10.2-20.9,14-20.9,14s18.5-20.9,19.6-47.9
							c0.9-21.4-10.7-43.7-10.7-43.7s-1.7-3-3-2.8c-1.8,0.3-1.3,3.3-1.3,3.3s3.4,25.5-5.5,36.8C77-19.8,51.4-12.2,48.2,15
							c-4.3,35.4,14.9,48.9,14.9,48.9h43.8c-1.7-8.1-2.1-16.5-0.1-23.1c4-13,15.3-23.3,15.3-23.3s-7.5,12.3-6,25.9
							c0.8,7.8,3.9,16.5,11.7,20.4h31.5C163.6,61.1,184.4,34.6,171.7,8.5z"/>
						<polygon class="st5" points="35.9,73.9 35.9,-25.3 4.9,-25.3 4.9,181.4 35.9,181.4 35.9,104.9 147.6,104.9 147.6,181.4 
							178.6,181.4 178.6,73.9 						"/>
					</g>
				</g>
			</g>
		</g>
		<rect x="-160.4" y="-174.9" class="st6" width="997.6" height="623.5"/>
	</g>
</g>
</svg>
