<?xml version="1.0" encoding="UTF-8"?>
<svg id="_Шар_2" data-name="Шар 2" xmlns="http://www.w3.org/2000/svg" xmlns:xlink="http://www.w3.org/1999/xlink" viewBox="0 0 712.14 647.91">
  <defs>
    <style>
      .cls-1 {
        fill: url(#_Градієнт_без_назви);
      }
    </style>
    <linearGradient id="_Градієнт_без_назви" data-name="Градієнт без назви" x1="0" y1="335.95" x2="712.14" y2="335.95" gradientTransform="translate(0 659.9) scale(1 -1)" gradientUnits="userSpaceOnUse">
      <stop offset="0" stop-color="#f15a24"/>
      <stop offset="1" stop-color="#915eff"/>
    </linearGradient>
  </defs>
  <g id="_Шар_1-2" data-name=" Шар 1">
    <path class="cls-1" d="M355.86,647.87c-110.56,0-221.11-.03-331.67,.04-9.07,0-16.69-2.43-21.32-10.67-4.72-8.39-3.27-16.36,1.82-24.3,14.05-21.92,27.98-43.92,41.55-66.14,2.4-3.94,3.98-9.08,3.98-13.67,.17-116.09,.08-232.19,.05-348.28,0-3.69-.04-7.4,.31-11.06,1.22-12.88,11.12-23.35,23.91-25.34,2.82-.44,5.72-.55,8.58-.55,57.64,0,115.27-.06,172.91,.28,6.16,.04,6.97-3.08,7.95-7.54,6.36-29.14,14.71-57.61,29.31-83.87,13.37-24.06,31.27-43.57,56.63-55.36,7.85-3.65,13.4-.01,12.28,8.55-5.83,44.65,9.23,83.13,34.58,118.63,4.63,6.48,8.46,14.99,14.87,18.32,6.18,3.21,15.22,1.04,23,1.04,64.41,.04,128.81,.03,193.22,.07,21.73,.02,32.86,11.35,32.86,33.06,0,117.73,.04,235.46,.2,353.2,0,2.86,1.12,6.06,2.65,8.52,14.28,22.98,28.94,45.72,43.06,68.8,2.88,4.7,5.41,10.48,5.54,15.82,.3,12.37-9.37,20.47-22.74,20.47-78.97,.01-157.94,0-236.91,0h-96.61v-.02Zm-115.63-309.02c-.41,4-.76,6.55-.93,9.11-2.77,42.24,9.89,80.54,30.05,116.87,4.57,8.24,9.64,16.21,14.53,24.27,2.12,3.51,2.53,7.01-.28,10.23-2.96,3.4-6.63,3.72-10.57,1.66-1.27-.66-2.56-1.3-3.84-1.95-53.52-27.42-85.41-71.28-98.78-129.41-7.49-32.59-5.48-65.17-.84-97.84,3.26-22.97,6.09-45.99,2.86-69.23-.64-4.58-.56-8.77,4.1-11.16,4.8-2.47,8.16,.38,11.32,3.56,10.24,10.31,17.9,22.35,24,35.48,2.68,5.76,5.33,11.56,8.54,17.03,3.95,6.75,11.5,7.28,16.16,1,2.76-3.71,5.26-8.07,6.32-12.51,5.24-21.91,9.99-43.94,14.84-65.94,.73-3.29,1.1-6.67,1.69-10.33-2.46-.19-4.07-.43-5.67-.43-57.64-.02-115.28-.05-172.93,.03-12.46,.02-19.22,7.29-19.22,20.43-.03,116.72-.02,233.44,0,350.16,0,2.15,.23,4.31,.34,6.26H649.41v-8.46c0-115.69,.01-231.39,.02-347.08,0-14.87-6.46-21.35-21.35-21.36-66.87-.02-133.75-.02-200.62-.02h-7.79c3,4.07,4.97,6.86,7.05,9.56,24.48,31.69,44.38,65.4,49.55,106.22,1.27,10.04,4.21,20.09,7.87,29.56,3.72,9.62,13.7,12.14,21.75,5.68,4.94-3.96,9.11-9.47,12.11-15.1,3.33-6.25,5.01-13.38,7.24-20.19,1.32-4.04,3.34-7.07,8.05-7.11,5.02-.04,7.5,3.13,8.32,7.5,1.47,7.85,3.32,15.74,3.66,23.66,2.13,49.99-10.02,96.41-36.66,138.73-20.24,32.16-47.6,55.55-85.21,65.36-4.6,1.2-8.81,1.21-11.29-3.33-2.45-4.48-.39-8.16,3.08-11.42,24.24-22.76,41.36-50.21,52.73-81.28,2.9-7.94,4.65-16.3,6.93-24.46-3.33,.36-5.25,1.46-7.2,2.53-15.76,8.67-32.55,12.14-50.43,9.8-17.09-2.24-23.07-7.22-25.37-24.56-1.91-14.37-1.85-29.01-2.51-43.54-1.07-23.61-1.93-47.24-14.34-68.47-11.41-19.52-26.19-37.12-33.42-60.65-1.92,3.2-3.08,5.03-4.14,6.91-17.17,30.22-24.28,62.31-19.27,97.05,2.21,15.32,.9,30.75-3.57,45.69-6.38,21.28-25.31,29.6-44.89,18.9-7.55-4.13-13.84-10.68-20.36-16.51-3.12-2.78-5.45-6.45-9.1-10.9h0Zm24.94,146.33c.49-.53,.99-1.06,1.48-1.59-.67-1.37-1.25-2.8-2.02-4.11-12.58-21.49-23.01-43.91-29.82-67.95-7.73-27.3-8.24-55.02-5.08-82.96,.81-7.12,7.83-10.47,12.9-6.24,1.98,1.66,3.13,4.28,4.89,6.25,7.74,8.65,14.55,18.54,23.6,25.5,14.65,11.26,28.74,5.46,33.35-12.29,4.03-15.52,3.64-31.27,1.87-47.06-4.4-39.35,7.24-74.57,28.28-107.16,1.61-2.49,6.21-4.5,9.18-4.22,2.61,.25,6.35,3.64,7.06,6.32,4.35,16.37,12.92,30.49,22.16,44.35,9.91,14.87,20.41,29.78,22.63,47.97,2.57,21.1,3.38,42.42,5.18,63.62,.81,9.57,1.85,19.14,3.37,28.61,.85,5.31,4.49,8.16,10.19,9.06,20.05,3.14,38.27-1.14,54.98-12.44,4.32-2.92,8.5-7.46,14.27-3.38,5.59,3.96,3.12,9.77,2.25,14.78-6.23,35.81-22.33,67.02-44.82,95.2-2.62,3.28-5.39,6.45-9.2,11,3.51-1.29,5.41-1.86,7.21-2.66,14.6-6.51,27.69-15.36,38.47-27.1,41.8-45.52,58.49-99.97,56.31-160.93-.07-1.84-.57-3.66-1.14-7.09-1.34,2.93-1.92,4.19-2.5,5.46-4.33,9.42-9.53,18.16-18.5,24.02-12.96,8.46-29.37,5.26-36.54-8.37-4.02-7.64-6.83-16.37-8.14-24.92-5.13-33.53-15.04-64.98-35.74-92.48-15.66-20.8-31.17-41.72-46.22-62.96-23.89-33.73-37.84-70.7-35.01-112.81,.08-1.12-.25-2.27-.62-5.29-7.44,5.62-14.3,10.01-20.23,15.41-22.08,20.1-35.47,45.88-43.12,73.99-9.3,34.16-15.7,69.1-23.98,103.55-3.58,14.87-8.09,29.6-13.43,43.93-3.26,8.74-10.67,13.88-20.72,13.69-9.97-.18-15.5-6.41-19.65-14.47-5.16-10.02-10.11-20.14-15.44-30.06-1.84-3.42-4.57-6.36-6.9-9.52-.49,.2-.98,.41-1.47,.61,2.3,28.94-3.6,57.19-6.53,85.69-1.94,18.85-2.3,37.66,.71,56.43,6.69,41.64,22.64,78.77,54.28,107.7,9.98,9.13,21.41,16.66,32.18,24.92h.02Zm90.88,62.84v-.08c-97.03,0-194.06,.03-291.09-.09-4.45,0-6.93,1.4-9.28,5.2-13.46,21.81-27.21,43.44-40.92,65.1-2.59,4.09-5.06,8.04-2.38,13.08,2.82,5.3,7.68,5.39,12.74,5.38,64.21-.05,128.41-.11,192.62,0,3.65,0,5.51-1.26,7.16-4.32,3.79-7.03,7.91-13.9,11.97-20.79,5.86-9.97,14.46-15.52,26.16-15.53,62.57-.08,125.13-.16,187.7-.06,11.01,.02,19.74,4.93,25.47,14.56,4.2,7.04,8.47,14.05,12.31,21.29,1.9,3.58,4.25,4.75,8.26,4.75,63.8-.12,127.6-.09,191.39-.05,4.71,0,9.07-.42,11.58-5.2,2.48-4.71,.53-8.6-2-12.58-13.06-20.61-26.37-41.08-38.84-62.04-4.02-6.75-8.44-8.81-16.08-8.78-95.59,.27-191.19,.18-286.78,.18v-.02Zm122.04,88.22c-3.78-6.54-7.17-12.1-10.25-17.82-4.22-7.83-10.52-11.43-19.49-11.32-18.45,.23-36.9,.07-55.36,.07-42.24,0-84.47,.04-126.71-.03-6.39-.01-12.71,.57-16.61,6.09-5,7.09-9.2,14.76-14.26,23.01h242.68Z"/>
  </g>
</svg>